<svg width="345" height="44" viewBox="0 0 345 44" fill="none" xmlns="http://www.w3.org/2000/svg">
<path d="M76.9754 38.48C71.602 38.48 67.5641 37.0651 64.8615 34.2354C62.159 31.4056 60.8077 27.2087 60.8077 21.6446C60.8077 18.2426 61.4595 15.3174 62.7631 12.8692C64.0667 10.3892 65.9584 8.49744 68.4384 7.19385C70.9184 5.89026 73.8595 5.23846 77.2615 5.23846C81.3949 5.23846 85.4169 6.06513 89.3277 7.71846C89.0097 10.7708 88.5646 13.8231 87.9923 16.8754L84.3677 17.1138L81.3631 12.7262C79.7733 12.1538 77.802 11.8677 75.4492 11.8677C74.3364 11.8677 73.001 11.979 71.4431 12.2015C70.8708 13.1554 70.4256 14.4272 70.1077 16.0169C69.7897 17.6067 69.6308 19.3236 69.6308 21.1677C69.6308 24.8241 70.362 27.5585 71.8246 29.3708C73.2872 31.1513 75.5605 32.0574 78.6446 32.0892C79.4077 32.0892 80.3774 32.0256 81.5538 31.8985V28.4169C81.5538 27.781 81.5061 27.3677 81.4108 27.1769C81.3154 26.9862 81.0451 26.7636 80.6 26.5092L78.7877 25.6031L78.9784 22.36L80.0754 22.1692C80.4251 22.1056 81.6651 21.9149 83.7954 21.5969C85.9256 21.2472 87.7061 21.0405 89.1369 20.9769C89.4549 21.581 89.6933 22.2646 89.8523 23.0277V35.5231C88.0082 36.4451 85.9574 37.1764 83.7 37.7169C81.4426 38.2256 79.201 38.48 76.9754 38.48Z" fill="black"/>
<path d="M93.2835 33.0431L96.7651 32.0892V13.9185C96.7651 13.0918 96.7015 12.5513 96.5743 12.2969C96.4471 12.0108 96.1133 11.7564 95.5728 11.5338L93.0928 10.1508L93.3789 6.24C98.1481 5.54051 102.743 5.19077 107.162 5.19077C110.596 5.19077 113.362 5.54051 115.46 6.24C117.559 6.90769 119.085 7.97282 120.039 9.43539C121.025 10.8662 121.517 12.7738 121.517 15.1585C121.517 17.1297 121.009 18.8626 119.991 20.3569C118.974 21.8195 117.527 22.9482 115.651 23.7431L123.282 36.0477L123.234 37.9077H114.554L107.496 25.1738L105.397 25.1262V30.4677C105.397 31.2308 105.445 31.7236 105.54 31.9462C105.668 32.1369 105.954 32.3595 106.399 32.6138L108.45 33.8062L108.259 37.9077H93.522L93.2835 33.0431ZM108.45 19.7846C110.135 19.7846 111.375 19.6256 112.17 19.3077C112.488 18.1631 112.647 16.7959 112.647 15.2062C112.647 13.6164 112.297 12.4877 111.597 11.82C110.93 11.1523 109.801 10.8185 108.211 10.8185C107.321 10.8185 106.415 10.8662 105.493 10.9615V19.4985C106.319 19.6892 107.305 19.7846 108.45 19.7846Z" fill="black"/>
<path d="M124.884 33.6631L126.363 32.7569L137.523 5.71539L145.63 5L155.169 30.7538C155.487 31.5805 155.709 32.121 155.836 32.3754C155.964 32.6297 156.202 32.9795 156.552 33.4246L157.41 34.5215L157.124 37.9077H143.723L143.246 33.3769L146.632 32.5185L145.106 27.7015L135.424 27.8446L134.375 30.8492C134.28 31.1354 134.232 31.3738 134.232 31.5646C134.232 31.7872 134.264 31.9621 134.327 32.0892C134.423 32.1846 134.566 32.2641 134.756 32.3277L138.047 33.7108L137.57 37.9077H125.075L124.884 33.6631ZM140.48 13.1554L137.332 22.3123L143.484 22.5985L140.48 13.1554Z" fill="black"/>
<path d="M159.373 33.0431L162.854 32.0892V13.9185C162.854 13.0918 162.791 12.5513 162.664 12.2969C162.536 12.0108 162.203 11.7564 161.662 11.5338L159.182 10.1508L159.468 6.28769C161.885 5.90616 164.174 5.6359 166.336 5.47693C168.498 5.28615 170.819 5.19077 173.299 5.19077C176.733 5.19077 179.483 5.55641 181.55 6.28769C183.648 7.01897 185.174 8.16359 186.128 9.72154C187.114 11.2795 187.607 13.3462 187.607 15.9215C187.607 19.26 186.398 21.8831 183.982 23.7908C181.597 25.6985 178.323 26.6523 174.157 26.6523L171.534 26.5569V30.1815C171.534 30.9446 171.582 31.4374 171.677 31.66C171.805 31.8826 172.091 32.1051 172.536 32.3277L175.445 34.0446L175.254 37.9077H159.611L159.373 33.0431ZM174.587 21.3585C176.304 21.3585 177.559 21.1836 178.354 20.8338C178.704 19.2759 178.879 17.6385 178.879 15.9215C178.879 14.0456 178.513 12.7103 177.782 11.9154C177.083 11.1205 175.938 10.7231 174.348 10.7231C173.808 10.7231 172.87 10.7867 171.534 10.9138V21.0723C172.393 21.2631 173.41 21.3585 174.587 21.3585Z" fill="black"/>
<path d="M189.775 32.9L192.779 32.0892V13.8231C192.779 12.9964 192.716 12.4559 192.589 12.2015C192.493 11.9154 192.191 11.661 191.682 11.4385L189.679 10.2938L189.822 5.76308H204.702L204.941 10.6277L201.412 11.5815V18.5446L212.286 18.2585V13.8231C212.286 12.9964 212.222 12.4559 212.095 12.2015C211.968 11.9154 211.634 11.661 211.093 11.4385L208.756 10.1031L208.995 5.76308H223.636L223.827 10.7708L220.918 11.5815V30.1815C220.918 30.9446 220.966 31.4374 221.061 31.66C221.188 31.8826 221.474 32.1051 221.919 32.3277L223.875 33.4723L223.684 37.9077H209.186L208.947 32.9954L212.286 32.0892V24.9831L201.412 24.5062V30.1815C201.412 30.9446 201.459 31.4374 201.555 31.66C201.682 31.8826 201.984 32.1051 202.461 32.3277L204.989 33.8062L204.798 37.9077H190.013L189.775 32.9Z" fill="black"/>
<path d="M237.26 38.0985C233.826 38.0985 230.392 37.9713 226.958 37.7169L226.72 33.0431L230.201 32.0892V13.9185C230.201 13.0918 230.137 12.5513 230.01 12.2969C229.883 12.0108 229.549 11.7564 229.009 11.5338L226.529 10.1508L226.815 6.19231C231.966 5.52462 236.385 5.19077 240.073 5.19077C244.588 5.19077 247.895 5.85846 249.993 7.19385C252.092 8.52923 253.141 10.6436 253.141 13.5369C253.141 14.9677 252.919 16.2395 252.473 17.3523C252.028 18.4333 251.345 19.419 250.423 20.3092C253.602 21.74 255.192 24.061 255.192 27.2723C255.192 30.1338 254.397 32.439 252.807 34.1877C251.217 35.9364 248.881 37.081 245.796 37.6215C244.652 37.9395 241.806 38.0985 237.26 38.0985ZM244.27 18.7831C244.588 17.9564 244.747 16.5733 244.747 14.6338C244.747 13.2985 244.429 12.3128 243.793 11.6769C243.189 11.041 242.251 10.6913 240.98 10.6277C240.153 10.6277 239.326 10.6595 238.5 10.7231V18.6877C239.04 18.6559 239.74 18.64 240.598 18.64C241.902 18.64 243.126 18.6877 244.27 18.7831ZM242.267 32.1846C244.08 32.1846 245.367 32.0256 246.13 31.7077C246.448 30.4359 246.607 29.3072 246.607 28.3215C246.607 26.7318 246.194 25.6031 245.367 24.9354C244.541 24.2677 243.142 23.9338 241.17 23.9338C240.757 23.9338 240.232 23.9656 239.596 24.0292L238.5 24.0769V31.8508C239.612 32.0733 240.868 32.1846 242.267 32.1846Z" fill="black"/>
<path d="M273.835 38.5754C268.557 38.5754 264.614 37.24 262.007 34.5692C259.432 31.8985 258.144 27.8446 258.144 22.4077C258.144 18.8785 258.796 15.8262 260.099 13.2508C261.403 10.6436 263.263 8.64051 265.679 7.24154C268.096 5.84257 270.973 5.14308 274.312 5.14308C284.931 5.14308 290.241 10.5641 290.241 21.4062C290.241 24.9672 289.589 28.0354 288.285 30.6108C286.982 33.1862 285.09 35.1574 282.61 36.5246C280.162 37.8918 277.237 38.5754 273.835 38.5754ZM274.836 31.9938C276.649 31.9938 278.381 31.5328 280.035 30.6108C280.384 29.6251 280.655 28.401 280.845 26.9385C281.036 25.4441 281.132 23.9815 281.132 22.5508C281.132 19.0215 280.464 16.3508 279.129 14.5385C277.825 12.7262 275.901 11.82 273.358 11.82C271.545 11.82 269.797 12.1538 268.112 12.8215C267.762 13.4256 267.492 14.4272 267.301 15.8262C267.11 17.1933 267.015 18.7672 267.015 20.5477C267.015 24.2359 267.682 27.0656 269.018 29.0369C270.353 31.0082 272.293 31.9938 274.836 31.9938Z" fill="black"/>
<path d="M292.425 32.9L295.43 32.0892V13.8231C295.43 12.9964 295.366 12.4559 295.239 12.2015C295.143 11.9154 294.841 11.661 294.333 11.4385L292.33 10.2938L292.473 5.76308H307.353L307.591 10.6277L304.062 11.5815V32.1846L310.071 32.0415L314.125 27.4154L317.797 27.6062C317.734 30.2769 317.511 33.7108 317.13 37.9077H292.663L292.425 32.9Z" fill="black"/>
<path d="M320.765 33.2338L324.914 32.0892V11.4385L320.908 11.7723L317.379 16.0169L313.897 15.7308C313.897 13.0918 314.024 9.76923 314.279 5.76308H344.134C344.388 9.76923 344.515 13.0918 344.515 15.7308L341.082 16.0169L337.505 11.7723L333.594 11.4385V30.1815C333.594 30.9446 333.642 31.4374 333.737 31.66C333.832 31.8826 334.103 32.1051 334.548 32.3277L337.505 34.0923L337.314 37.9077H321.003L320.765 33.2338Z" fill="black"/>
<circle cx="21.859" cy="21.859" r="21.859" fill="url(#paint0_linear_9_101)"/>
<path d="M23 20.5L29.5572 7.38557C30.0185 6.46293 29.4325 5.36076 28.4096 5.22735L21.3832 4.31086C20.0521 4.13724 18.8214 5.04587 18.5955 6.36912L15.9343 21.956C15.7144 23.2445 16.7693 24.3942 18.0719 24.2857L21.5 24L17.7797 34.4844C17.4726 35.3499 18.6277 35.9662 19.1756 35.2293L27.9144 23.4772C28.9325 22.1081 27.8788 20.1748 26.1764 20.2882L23 20.5Z" fill="white"/>
<path fill-rule="evenodd" clip-rule="evenodd" d="M18 40C19.6569 40 21 38.6569 21 37C21 35.3432 19.6569 34 18 34C16.3431 34 15 35.3432 15 37C15 38.6569 16.3431 40 18 40ZM18 38C18.5523 38 19 37.5523 19 37C19 36.4477 18.5523 36 18 36C17.4477 36 17 36.4477 17 37C17 37.5523 17.4477 38 18 38Z" fill="white"/>
<defs>
<linearGradient id="paint0_linear_9_101" x1="21.859" y1="0" x2="21.859" y2="43.7179" gradientUnits="userSpaceOnUse">
<stop stop-color="#1E4FD8"/>
<stop offset="1" stop-color="#6888E4"/>
</linearGradient>
</defs>
</svg>
